# xmcd CD database file
#
# Track frame offsets:
#	150
#	11651
#	26367
#	37407
#	51873
#	65059
#	77699
#	91310
#	104809
#	118999
#	135350
#	150784
#	163782
#	177366
#	190189
#	202246
#	215315
#	228133
#	241286
#	255895
#	268800
#	281148
#	293122
#	306566
#	318240
#
# Disc length: 4392 seconds
#
# Revision: 1
# Processed by: cddbd v1.5.1PL0 Copyright (c) Steve Scherf et al.
# Submitted via: CDex 1.51
#
DISCID=6d112619
DTITLE=Cab Calloway - Jive Formation
DYEAR=1900
DGENRE=Jazz
TTITLE0=Jive Formation Please
TTITLE1=Hotcha RazzMaTazz
TTITLE2=Do You Wanna Jump Children
TTITLE3=A Good Sauce From The Gravy Bowl
TTITLE4=Fifteen Minute Intermission
TTITLE5=The Scat Song
TTITLE6=Nagasaki
TTITLE7=Reefer Man
TTITLE8=Who's Yehoodi
TTITLE9=Minnie The Moocher
TTITLE10=Kickin' The Gong Around
TTITLE11=(He Hep!) The Jumpin' Jive
TTITLE12=Keep That HiDeHi In Your Soul
TTITLE13=Chinese Rhythm
TTITLE14=The Boogie Woogie
TTITLE15=A Bee Gezindt
TTITLE16=Rhapsody In Rhumba
TTITLE17=Do It Again
TTITLE18=Moonglow
TTITLE19=Hoy Hoy
TTITLE20=Doing The Reactionary
TTITLE21=I Like Music (With A Song Like That)
TTITLE22=Come On With The 'Come On'
TTITLE23=She's Tall, She's Tan, She's Terrific
TTITLE24=At The Clambake Carnival
EXTD=
EXTT0=
EXTT1=
EXTT2=
EXTT3=
EXTT4=
EXTT5=
EXTT6=
EXTT7=
EXTT8=
EXTT9=
EXTT10=
EXTT11=
EXTT12=
EXTT13=
EXTT14=
EXTT15=
EXTT16=
EXTT17=
EXTT18=
EXTT19=
EXTT20=
EXTT21=
EXTT22=
EXTT23=
EXTT24=
PLAYORDER=
